<svg width="24" height="24" viewBox="0 0 24 24" fill="none" xmlns="http://www.w3.org/2000/svg">
<g clip-path="url(#clip0_688_2870)">
<path fill-rule="evenodd" clip-rule="evenodd" d="M17.82 19.8372C17.65 19.5972 17.42 19.3672 17.25 19.1572C16.88 18.6862 16.499 18.2152 16.098 17.7752C15.8231 17.4702 15.5327 17.1795 15.228 16.9042C14.9943 16.6676 14.7392 16.453 14.466 16.2632C14.2234 16.0936 13.9408 15.9901 13.646 15.9632C13.4098 15.9586 13.1772 16.021 12.975 16.1432C12.505 16.4132 11.864 17.0532 11.273 17.4542C11.153 17.5376 11.0263 17.6076 10.893 17.6642C10.823 17.6642 10.743 17.7342 10.693 17.6642L7.477 13.9302C7.047 13.4602 6.477 12.9302 5.936 12.2882C5.6298 11.9462 5.39186 11.5487 5.235 11.1172C5.185 10.9572 5.315 10.7872 5.465 10.5972C5.875 10.0762 6.596 9.53524 7.007 9.00524C7.249 8.77024 7.419 8.47124 7.497 8.14424C7.52142 7.97106 7.48615 7.79472 7.397 7.64424C7.277 7.44324 7.067 7.25324 6.967 7.11224L5.216 4.83024C5.19407 4.79112 5.1639 4.75722 5.1276 4.73089C5.09129 4.70455 5.04969 4.68641 5.00569 4.67772C4.96169 4.66902 4.91632 4.66998 4.87273 4.68052C4.82913 4.69106 4.78834 4.71094 4.75317 4.73878C4.71801 4.76662 4.6893 4.80176 4.66904 4.84178C4.64877 4.88179 4.63743 4.92573 4.6358 4.97055C4.63416 5.01537 4.64228 5.06002 4.65958 5.1014C4.67688 5.14278 4.70295 5.17992 4.736 5.21024L6.457 7.51324L6.857 8.04325C6.717 8.37325 6.489 8.65724 6.197 8.86424C5.68033 9.29091 5.19967 9.75491 4.755 10.2562C4.62689 10.4039 4.5349 10.5794 4.4863 10.7687C4.43771 10.9581 4.43384 11.1561 4.475 11.3472C4.651 11.8782 4.926 12.3712 5.286 12.7992C5.776 13.4392 6.387 14.0302 6.818 14.5212L9.911 18.3252C10.0567 18.5073 10.2565 18.6384 10.4815 18.6995C10.7066 18.7606 10.9452 18.7486 11.163 18.6652C11.7936 18.3871 12.375 18.0089 12.885 17.5452C13.075 17.3952 13.265 17.2442 13.425 17.1442C13.585 17.0442 13.595 17.1442 13.595 17.0742C13.7265 17.1053 13.8473 17.1709 13.945 17.2642C14.136 17.4042 14.306 17.5842 14.466 17.7242C14.626 17.8642 14.997 18.2552 15.247 18.5352C15.497 18.8152 15.988 19.4162 16.338 19.8672C16.478 20.0372 16.658 20.2172 16.809 20.4172C16.869 20.4932 16.9157 20.5766 16.949 20.6672C17.089 21.0982 16.709 21.4392 16.319 21.7392C15.8343 22.0952 15.2926 22.3661 14.717 22.5402C12.7203 23.1074 10.5855 22.9297 8.71 22.0402C6.80417 21.0936 5.12158 19.7522 3.774 18.1052C2.02973 16.231 0.998792 13.8039 0.861 11.2472C0.751 8.09424 2.203 5.51124 3.784 4.74024C3.86518 4.69936 3.92727 4.62849 3.95713 4.54264C3.98699 4.45679 3.98228 4.36269 3.944 4.28025C3.92569 4.23826 3.89909 4.20041 3.86579 4.16897C3.83249 4.13752 3.79317 4.11313 3.75021 4.09725C3.70725 4.08138 3.66153 4.07434 3.61578 4.07658C3.57003 4.07881 3.52521 4.09026 3.484 4.11024C1.712 4.94024 0 7.75224 0 11.2662C0.0983275 14.0361 1.16042 16.6848 3.003 18.7552C4.41442 20.5322 6.18986 21.9864 8.21 23.0202C10.3258 24.0584 12.7513 24.2757 15.018 23.6302C15.8987 23.38 16.7104 22.9316 17.391 22.3192C17.6823 22.0847 17.8995 21.7709 18.0166 21.4157C18.1337 21.0605 18.1457 20.6791 18.051 20.3172C17.9961 20.1474 17.9188 19.9856 17.821 19.8362" fill="#020202"/>
<path fill-rule="evenodd" clip-rule="evenodd" d="M14.4238 12.1476C14.5139 12.1687 14.6088 12.1531 14.6875 12.1044C14.7662 12.0557 14.8224 11.9777 14.8438 11.8876C15.1214 11.1313 15.1214 10.301 14.8438 9.54465C14.7211 9.21077 14.5381 8.9023 14.3038 8.63465C14.0619 8.36922 13.7696 8.1547 13.4438 8.00365C12.723 7.63733 11.8928 7.54837 11.1108 7.75365C11.0714 7.75825 11.0333 7.77056 10.9986 7.78988C10.964 7.8092 10.9335 7.83516 10.9089 7.86627C10.8843 7.89737 10.8661 7.93302 10.8552 7.97118C10.8444 8.00934 10.8412 8.04925 10.8458 8.08865C10.8504 8.12805 10.8627 8.16615 10.882 8.20079C10.9013 8.23543 10.9273 8.26592 10.9584 8.29053C10.9895 8.31514 11.0252 8.33338 11.0633 8.34421C11.1015 8.35504 11.1414 8.35825 11.1808 8.35365C11.7908 8.36765 12.3808 8.57765 12.8628 8.95365C13.0595 9.09565 13.2395 9.25598 13.4028 9.43465C13.7002 9.73931 13.9243 10.1078 14.0579 10.5121C14.1915 10.9163 14.2311 11.3457 14.1738 11.7676C14.1612 11.8507 14.1797 11.9354 14.2259 12.0056C14.272 12.0758 14.3425 12.1264 14.4238 12.1476Z" fill="#FC6321"/>
<path fill-rule="evenodd" clip-rule="evenodd" d="M18.0213 6.80214C17.3891 5.89158 16.5439 5.14936 15.5593 4.64014C14.6248 4.19137 13.5892 3.99453 12.5553 4.06914C11.5628 4.13013 10.5988 4.42517 9.74226 4.93014C9.67066 4.96727 9.61673 5.03133 9.59235 5.10822C9.56797 5.18511 9.57513 5.26853 9.61226 5.34014C9.64939 5.41175 9.71345 5.46568 9.79034 5.49006C9.86723 5.51444 9.95065 5.50727 10.0223 5.47014C10.8176 5.08795 11.6933 4.90273 12.5753 4.93014C13.4329 4.95089 14.2707 5.19195 15.0083 5.63014C15.8079 6.08305 16.4929 6.71359 17.0103 7.47314C17.4186 7.96957 17.7586 8.51845 18.0213 9.10514C18.3425 9.81577 18.4883 10.5932 18.4466 11.3719C18.4048 12.1506 18.1766 12.9079 17.7813 13.5801C17.7415 13.6362 17.7196 13.703 17.7185 13.7717C17.7174 13.8404 17.7372 13.9079 17.7753 13.9651C17.8013 14.0031 17.8333 14.0348 17.8713 14.0601C17.946 14.1117 18.0379 14.1321 18.1274 14.1172C18.217 14.1023 18.2973 14.0531 18.3513 13.9801C18.8779 13.2285 19.2141 12.3602 19.3312 11.4499C19.4482 10.5397 19.3426 9.61458 19.0233 8.75414C18.7881 8.0573 18.4504 7.3994 18.0213 6.80214Z" fill="#FC6321"/>
<path fill-rule="evenodd" clip-rule="evenodd" d="M23.8991 7.46294C23.8089 6.90632 23.6546 6.36203 23.4391 5.84094C23.2265 5.32825 22.9685 4.83562 22.6681 4.36894C21.944 3.24356 20.9927 2.28199 19.8751 1.54594C18.7534 0.826825 17.4956 0.346508 16.1801 0.134942C13.5942 -0.240098 10.9557 0.200702 8.6321 1.39594C8.57703 1.42162 8.53072 1.46293 8.49893 1.51471C8.46714 1.5665 8.45127 1.62649 8.4533 1.68722C8.45532 1.74795 8.47515 1.80675 8.51032 1.8563C8.54549 1.90586 8.59444 1.94398 8.6511 1.96594C8.68835 1.97964 8.72795 1.98581 8.7676 1.98409C8.80725 1.98237 8.84617 1.97281 8.8821 1.95594C11.1191 0.950312 13.6121 0.660424 16.0201 1.12594C17.1804 1.37283 18.2819 1.84178 19.2641 2.50694C20.2314 3.16957 21.0582 4.01679 21.6971 4.99994C21.9704 5.40194 22.2038 5.82594 22.3971 6.27194C22.5924 6.70994 22.7394 7.16361 22.8381 7.63294C23.031 8.67974 23.068 9.7493 22.9481 10.8069C22.8413 11.8707 22.568 12.9111 22.1381 13.8899L20.8861 16.0129C20.8432 16.094 20.8338 16.1887 20.86 16.2766C20.8862 16.3645 20.9458 16.4386 21.0261 16.4829C21.1072 16.5258 21.2018 16.5352 21.2897 16.509C21.3776 16.4828 21.4517 16.4232 21.4961 16.3429L22.8481 14.2309C23.3552 13.1898 23.6931 12.0745 23.8491 10.9269C24.0351 9.78094 24.0521 8.61394 23.8991 7.46294Z" fill="#FC6321"/>
</g>
<defs>
<clipPath id="clip0_688_2870">
<rect width="24" height="24" fill="white"/>
</clipPath>
</defs>
</svg>
